<svg width="23" height="23" viewBox="0 0 23 23" fill="none" xmlns="http://www.w3.org/2000/svg">
<g clip-path="url(#clip0_10_12)">
<rect x="5" y="11" width="17" height="11" fill="white"/>
<path fill-rule="evenodd" clip-rule="evenodd" d="M0 9.70948C0 16.1041 0.00385198 19.4672 0.0112752 19.5625C0.0663934 20.2697 0.308776 20.9287 0.714919 21.4754C1.00325 21.8635 1.37308 22.2019 1.77438 22.4448C2.2685 22.7439 2.82371 22.92 3.41844 22.9663C3.61838 22.9818 19.3812 22.9818 19.5812 22.9663C20.2891 22.9112 20.9487 22.669 21.4959 22.2633C21.8728 21.9839 22.2195 21.6093 22.4496 21.233C22.7637 20.7192 22.941 20.1692 22.9883 19.5625C23.0039 19.3628 23.0039 3.61598 22.9883 3.41624C22.926 2.61666 22.6371 1.91032 22.1215 1.29705C22.0016 1.15444 21.736 0.899821 21.5842 0.781932C21.253 0.524728 20.889 0.328085 20.5035 0.198136C20.2582 0.115464 20.0495 0.0683895 19.7204 0.0215282C19.6463 0.0109825 17.4214 0.00716803 9.81246 0.00452039L0 0.00109863V9.70948ZM14.1108 12.554C14.4268 12.6073 14.6982 12.7018 14.9174 12.8347C15.1987 13.0053 15.4515 13.2912 15.6033 13.6106C15.7944 14.0124 15.8935 14.5032 15.8956 15.057L15.8965 15.2982L15.1261 15.3011L14.3557 15.304L14.3487 15.0487C14.3261 14.2351 14.1706 13.9883 13.6812 13.9896C13.4632 13.9901 13.32 14.0444 13.2027 14.171C13.1038 14.2777 13.0529 14.4049 13.0277 14.6079C12.9835 14.9642 13.065 15.2967 13.2438 15.4894C13.3792 15.6355 13.5655 15.7491 13.8862 15.8815C14.1154 15.976 14.5078 16.1677 14.6827 16.2706C15.0584 16.4915 15.3621 16.7414 15.5243 16.9629C15.6778 17.1725 15.8507 17.5909 15.9285 17.9408C16.0938 18.6844 15.9995 19.4656 15.6748 20.0438C15.3202 20.6751 14.7748 21.0373 14.0435 21.1271C13.9166 21.1427 13.4028 21.1419 13.2555 21.126C12.6954 21.0652 12.2184 20.8338 11.8978 20.4675C11.569 20.0918 11.3634 19.5609 11.31 18.9499C11.2925 18.7488 11.2838 18.5099 11.2924 18.4642L11.3002 18.4227H12.0946H12.889L12.8962 18.6274C12.9072 18.9377 12.9428 19.1063 13.0399 19.3072C13.1385 19.5114 13.296 19.643 13.4858 19.6799C13.5718 19.6966 13.7905 19.6873 13.8791 19.6632C14.1014 19.6028 14.223 19.4618 14.2895 19.1877C14.3753 18.8334 14.3459 18.3884 14.2201 18.1366C14.0884 17.8733 13.8584 17.7047 13.2156 17.4001C12.6512 17.1328 12.4791 17.0376 12.251 16.8668C11.826 16.5486 11.6015 16.2271 11.4773 15.7591C11.3228 15.1763 11.3463 14.4712 11.5389 13.9127C11.5916 13.7596 11.7062 13.5268 11.7846 13.4134C11.8551 13.3115 12.0166 13.134 12.1371 13.0263C12.4056 12.786 12.8178 12.6126 13.2686 12.5502C13.4592 12.5238 13.4662 12.5235 13.729 12.5275C13.911 12.5302 14.0116 12.5372 14.1108 12.554ZM19.2543 12.5494C19.6043 12.6033 19.9054 12.7138 20.1589 12.8814C20.2879 12.9666 20.5024 13.1794 20.6056 13.3244C20.7828 13.5734 20.9115 13.8947 20.9895 14.2824C21.0421 14.5438 21.0586 14.7038 21.0649 15.0149L21.0709 15.3038H20.296H19.5212L19.5149 15.0317C19.4967 14.2432 19.3398 13.991 18.8669 13.9896C18.7106 13.9892 18.6121 14.01 18.5057 14.0658C18.2727 14.1882 18.1591 14.4964 18.1933 14.9138C18.2197 15.2375 18.3213 15.4382 18.5444 15.6074C18.68 15.7102 18.8122 15.7808 19.069 15.8877C19.8411 16.209 20.4135 16.5865 20.6867 16.9545C20.8579 17.1853 21.0347 17.6266 21.1127 18.0182C21.1644 18.2773 21.1741 18.3833 21.1735 18.6807C21.173 18.9042 21.1684 18.9849 21.1486 19.1126C21.0996 19.4303 21.0254 19.6746 20.9001 19.9316C20.6392 20.4663 20.2348 20.8331 19.7028 21.0175C19.4323 21.1112 19.2287 21.1395 18.8295 21.1387C18.4127 21.1379 18.1842 21.1078 17.9123 21.0179C17.1903 20.7792 16.7141 20.1981 16.5369 19.3396C16.4906 19.1152 16.474 18.9591 16.467 18.6835L16.4604 18.4227H17.2621H18.0639L18.0654 18.605C18.0689 19.0214 18.1696 19.334 18.3607 19.5221C18.4412 19.6014 18.5214 19.6463 18.6333 19.6751C18.7202 19.6974 18.9483 19.6902 19.0522 19.6619C19.3525 19.58 19.4869 19.328 19.5035 18.8153C19.508 18.6761 19.5048 18.5971 19.4907 18.4965C19.436 18.1058 19.2882 17.8981 18.9003 17.6663C18.7707 17.5889 18.667 17.5367 18.0976 17.2624C17.6632 17.0532 17.4136 16.8897 17.1727 16.6564C17.0597 16.5471 16.9663 16.4378 16.8938 16.3303C16.5192 15.7747 16.4346 14.7405 16.6988 13.9459C16.8145 13.5977 16.9418 13.3896 17.1932 13.1376C17.3698 12.9605 17.4837 12.8761 17.676 12.7799C17.931 12.6523 18.2402 12.5663 18.5636 12.533C18.7106 12.5179 19.1114 12.5274 19.2543 12.5494ZM8.78769 12.5651C9.20562 12.6289 9.51801 12.7437 9.80965 12.9408C9.93718 13.027 10.2047 13.2915 10.2817 13.4076C10.4167 13.611 10.5434 13.9202 10.6064 14.2001C10.67 14.4823 10.713 14.9525 10.6969 15.1886L10.6891 15.3038H9.84393H8.99878L8.99189 15.071C8.98458 14.8241 8.97374 14.7261 8.93839 14.5875C8.86965 14.3181 8.69247 14.1403 8.43924 14.0867C8.32876 14.0633 8.19638 14.0654 8.09041 14.0922C7.80208 14.1651 7.66896 14.3409 7.59678 14.7441C7.5615 14.9412 7.55651 15.2567 7.56073 17.0259C7.56535 18.9461 7.56296 18.8775 7.63284 19.1004C7.71712 19.3691 7.88598 19.5426 8.11468 19.5956C8.21214 19.6182 8.39609 19.6181 8.48176 19.5955C8.83325 19.5027 8.99546 19.1762 8.99546 18.5617V18.4227H9.84177H10.6881L10.6952 18.4816C10.706 18.5715 10.7037 18.806 10.6906 18.9499C10.6076 19.8637 10.1755 20.5399 9.45028 20.891C9.22822 20.9986 9.00412 21.0666 8.72364 21.1116C8.54579 21.1402 7.96079 21.1407 7.77416 21.1125C7.46825 21.0662 7.22903 20.9959 7.00207 20.8855C6.37734 20.5816 6.01755 20.0619 5.89343 19.2842L5.86781 19.1238V16.8801C5.86781 14.4734 5.86604 14.5539 5.92558 14.2605C5.98443 13.9704 6.11101 13.6681 6.26384 13.4527C6.35014 13.3311 6.57127 13.1042 6.68757 13.018C7.03392 12.7611 7.49693 12.5979 8.02965 12.5448C8.19942 12.5279 8.61732 12.5391 8.78769 12.5651Z" fill="#663399"/>
</g>
<defs>
<clipPath id="clip0_10_12">
<rect width="23" height="23" fill="white"/>
</clipPath>
</defs>
</svg>
