<svg width="991" height="992" viewBox="0 0 991 992" fill="none" xmlns="http://www.w3.org/2000/svg">
<path fill-rule="evenodd" clip-rule="evenodd" d="M0 418.777C0 694.58 0.16597 839.634 0.485814 843.744C2.86069 874.246 13.3042 902.666 30.8037 926.246C43.2268 942.986 59.1619 957.581 76.4528 968.057C97.7429 980.958 121.665 988.552 147.29 990.548C155.905 991.218 835.078 991.218 843.693 990.548C874.195 988.173 902.615 977.729 926.195 960.23C942.431 948.18 957.372 932.021 967.284 915.791C980.817 893.631 988.46 869.911 990.497 843.744C991.168 835.129 991.168 155.962 990.497 147.347C987.812 112.861 975.363 82.3959 953.148 55.9453C947.983 49.7948 936.54 38.8128 929.999 33.7282C915.729 22.6349 900.043 14.1536 883.432 8.54883C872.863 4.98316 863.87 2.95282 849.69 0.931673C846.501 0.476831 750.635 0.312313 422.789 0.198119L0 0.0505371V418.777ZM607.993 541.462C621.605 543.763 633.302 547.838 642.745 553.569C654.866 560.927 665.756 573.257 672.3 587.033C680.531 604.362 684.804 625.533 684.892 649.418L684.93 659.821L651.738 659.945L618.545 660.07L618.241 649.058C617.27 613.969 610.568 603.325 589.481 603.379C580.089 603.403 573.918 605.746 568.864 611.206C564.603 615.808 562.409 621.291 561.323 630.05C559.419 645.417 562.93 659.755 570.633 668.068C576.471 674.369 584.494 679.269 598.316 684.977C608.19 689.055 625.095 697.322 632.634 701.76C648.82 711.288 661.908 722.065 668.896 731.62C675.509 740.661 682.959 758.706 686.31 773.799C693.431 805.871 689.37 839.564 675.378 864.5C660.1 891.73 636.602 907.35 605.09 911.225C599.626 911.897 577.487 911.864 571.141 911.175C547.008 908.553 526.453 898.575 512.641 882.777C498.474 866.572 489.614 843.675 487.315 817.322C486.559 808.646 486.184 798.341 486.553 796.37L486.89 794.58H521.119H555.348L555.659 803.411C556.13 816.793 557.665 824.066 561.849 832.733C566.099 841.538 572.884 847.215 581.061 848.805C584.768 849.526 594.189 849.126 598.01 848.087C607.585 845.481 612.827 839.401 615.689 827.578C619.389 812.297 618.123 793.101 612.699 782.241C607.027 770.887 597.115 763.613 569.42 750.479C545.103 738.947 537.688 734.842 527.857 727.475C509.547 713.753 499.872 699.887 494.524 679.7C487.865 654.563 488.876 624.152 497.174 600.063C499.448 593.461 504.386 583.42 507.763 578.53C510.8 574.133 517.76 566.48 522.951 561.832C534.519 551.471 552.279 543.992 571.702 541.3C579.914 540.162 580.216 540.147 591.541 540.319C599.381 540.438 603.717 540.739 607.993 541.462ZM829.609 541.263C844.69 543.588 857.663 548.353 868.587 555.583C874.142 559.259 883.384 568.435 887.832 574.692C895.466 585.431 901.014 599.289 904.374 616.008C906.64 627.283 907.35 634.186 907.624 647.603L907.879 660.063H874.494H841.108L840.837 648.329C840.053 614.32 833.295 603.442 812.916 603.382C806.184 603.363 801.94 604.259 797.354 606.669C787.315 611.945 782.422 625.24 783.892 643.242C785.033 657.204 789.411 665.86 799.022 673.155C804.863 677.59 810.562 680.638 821.625 685.247C854.894 699.105 879.555 715.386 891.325 731.26C898.704 741.213 906.32 760.244 909.684 777.138C911.909 788.313 912.327 792.884 912.3 805.709C912.28 815.349 912.08 818.83 911.23 824.338C909.116 838.042 905.922 848.577 900.52 859.661C889.28 882.723 871.856 898.542 848.933 906.495C837.278 910.539 828.508 911.758 811.307 911.724C793.349 911.688 783.5 910.39 771.786 906.514C740.679 896.22 720.16 871.157 712.526 834.128C710.531 824.451 709.814 817.717 709.513 805.83L709.229 794.58H743.773H778.318L778.385 802.443C778.536 820.406 782.871 833.885 791.106 842C794.574 845.418 798.03 847.358 802.854 848.598C806.597 849.561 816.426 849.252 820.9 848.031C833.84 844.499 839.631 833.627 840.346 811.516C840.54 805.511 840.404 802.102 839.797 797.765C837.438 780.916 831.071 771.956 814.358 761.959C808.773 758.618 804.305 756.368 779.77 744.538C761.055 735.515 750.301 728.462 739.919 718.402C735.05 713.685 731.026 708.974 727.904 704.338C711.762 680.371 708.118 635.767 719.5 601.495C724.487 586.478 729.972 577.501 740.801 566.633C748.411 558.996 753.321 555.354 761.604 551.206C772.592 545.704 785.915 541.994 799.851 540.557C806.181 539.904 823.451 540.314 829.609 541.263ZM378.635 541.94C396.642 544.691 410.102 549.645 422.668 558.144C428.163 561.862 439.688 573.27 443.009 578.28C448.825 587.053 454.283 600.388 456.999 612.459C459.737 624.631 461.592 644.911 460.898 655.095L460.559 660.063H424.145H387.73L387.433 650.023C387.118 639.372 386.651 635.146 385.128 629.17C382.166 617.547 374.532 609.879 363.621 607.568C358.861 606.56 353.157 606.65 348.591 607.805C336.168 610.95 330.432 618.533 327.322 635.922C325.802 644.425 325.587 658.033 325.769 734.338C325.968 817.157 325.865 814.197 328.876 823.81C332.507 835.399 339.783 842.885 349.637 845.171C353.836 846.145 361.762 846.142 365.453 845.166C380.598 841.161 387.587 827.083 387.587 800.577V794.58H424.052H460.517L460.823 797.121C461.288 801.001 461.191 811.115 460.627 817.322C457.051 856.731 438.432 885.898 407.184 901.042C397.616 905.68 387.96 908.614 375.875 910.557C368.212 911.789 343.006 911.812 334.965 910.595C321.784 908.599 311.477 905.565 301.698 900.803C274.78 887.695 259.278 865.281 253.93 831.74L252.826 824.822V728.047C252.826 624.249 252.75 627.721 255.315 615.063C257.851 602.551 263.305 589.514 269.89 580.224C273.608 574.979 283.136 565.193 288.147 561.473C303.07 550.396 323.02 543.355 345.973 541.067C353.288 540.337 371.294 540.819 378.635 541.94Z" fill="#663399"/>
</svg>
