<svg width="22" height="22" viewBox="0 0 22 22" fill="none" xmlns="http://www.w3.org/2000/svg">
<g clip-path="url(#clip0_10_14)">
<circle cx="11" cy="11" r="10" fill="white"/>
<path fill-rule="evenodd" clip-rule="evenodd" d="M9.46413 0.0670169C8.44106 0.198467 7.27987 0.555279 6.17946 1.07634C4.09943 2.06132 2.07212 4.08862 1.08714 6.16865C0.3146 7.80024 0 9.19511 0 10.9892C0 14.0271 1.07092 16.6073 3.22644 18.7628C5.38189 20.9183 7.96214 21.9892 11 21.9892C14.0379 21.9892 16.6181 20.9183 18.7736 18.7628C20.9291 16.6073 22 14.0271 22 10.9892C22 7.95135 20.9291 5.37108 18.7736 3.21563C16.9946 1.43659 14.8317 0.358586 12.4455 0.0616544C11.766 -0.0228394 10.141 -0.0199519 9.46413 0.0670169ZM15.6406 2.83723C16.2429 2.99824 16.9899 3.38448 17.3217 3.70644C18.4297 4.78169 18.1417 6.75172 16.6469 8.32246C15.7748 9.2389 14.9917 9.68447 13.5689 10.0738C12.9726 10.237 12.7619 10.2599 11.825 10.2634C10.8554 10.267 10.7192 10.2521 10.3125 10.0986C9.73789 9.88164 9.14375 9.32312 9.14375 8.99993C9.14375 8.73771 9.26888 8.72713 9.49273 8.97036C9.95782 9.47595 11.1066 9.67361 12.2375 9.44268C14.2462 9.03251 15.888 7.8958 16.5575 6.45169C16.6947 6.15559 16.7336 5.96061 16.7367 5.55286C16.7402 5.08494 16.721 5.00636 16.5476 4.77873C16.1647 4.2763 15.4595 4.04744 14.2904 4.04627C12.6558 4.04462 11.0584 4.54587 9.075 5.68293C6.79614 6.98933 5.6474 8.37004 5.71828 9.71733C5.76668 10.6378 6.12088 11.0979 7.8375 12.4705C8.46141 12.9694 9.02694 13.4392 9.09425 13.5145C9.20961 13.6436 9.23917 13.6461 9.60987 13.5567C9.82616 13.5046 10.3744 13.4593 10.8281 13.456C12.0418 13.4472 12.7733 13.7136 13.3992 14.3926C14.0674 15.1175 14.2013 16.0493 13.7331 16.7164C13.4786 17.0791 12.7859 17.4039 12.7883 17.1595C12.7888 17.1123 12.8964 17.0041 13.0274 16.9193C13.357 16.7058 13.5682 16.2726 13.5259 15.8968C13.4819 15.5064 13.1861 15.0173 12.8444 14.7698C12.2597 14.3462 11.2203 14.102 10.3496 14.1836C9.68715 14.2457 9.67065 14.2595 9.76573 14.6732C9.80842 14.859 9.84273 15.2897 9.84191 15.6301C9.83826 17.0912 9.09824 18.2908 7.80299 18.9351C6.85032 19.409 5.65957 19.4187 5.18286 18.9567C4.84667 18.6308 4.72271 18.2506 4.75544 17.645C4.81821 16.4807 5.60636 15.5999 7.63318 14.4289L8.32294 14.0304L7.85682 13.6889C7.60038 13.5011 7.19469 13.2161 6.95523 13.0556C6.18503 12.5394 5.18925 11.6975 4.82123 11.2514C4.37442 10.7098 4.05625 10.059 4.01032 9.5931C3.90369 8.50988 4.97812 6.82776 6.56563 5.59259C8.29359 4.24812 10.9556 3.03908 12.8468 2.73974C13.4305 2.64734 15.1554 2.7075 15.6406 2.83723ZM8.18201 15.0152C7.10194 15.6811 6.44463 16.3458 6.18166 17.0379C5.90893 17.7557 6.07571 18.1825 6.6209 18.162C7.60636 18.1246 8.65906 17.049 8.87205 15.8617C8.95448 15.4024 8.8935 14.7672 8.76288 14.7237C8.72431 14.7108 8.46292 14.842 8.18201 15.0152Z" fill="#CD669A"/>
</g>
<defs>
<clipPath id="clip0_10_14">
<rect width="22" height="22" fill="white"/>
</clipPath>
</defs>
</svg>
