<?xml version="1.0" encoding="UTF-8"?><svg id="Layer_2" xmlns="http://www.w3.org/2000/svg" viewBox="0 0 119.68 35.6"><g id="content"><path d="M24.78,34.79s-1.47.46-3.4.46c-3.3,0-5.08-1.27-5.54-3.81-.76,1.47-2.74,3.81-7.72,3.81S0,32.65,0,28.64c0-5.94,6.24-7.41,15.18-7.62h.3v-1.07c0-2.44-1.42-4.06-4.37-4.06-2.64,0-4.11,1.07-4.11,2.79,0,.36.05.66.2.91l-6.09,1.02s-.31-1.02-.31-2.34c0-4.57,4.01-7.62,10.61-7.62,7.06,0,10.87,3.55,10.87,9.6v7.82c0,1.12.41,1.57,1.32,1.57.3,0,.61-.05.86-.15l.3,5.28ZM15.49,26.46v-1.93h-.3c-5.74.15-8.43.96-8.43,3.2,0,1.57,1.27,2.39,3.35,2.39,3.35,0,5.38-1.73,5.38-3.66Z" style="fill:#1c2026; stroke-width:0px;"/><path d="M26.82,0h6.96v34.94h-6.96V0Z" style="fill:#1c2026; stroke-width:0px;"/><path d="M56.29,27.49l3.35,3.77c-1.6,2.15-5.08,4.28-10.26,4.34-8.07.1-12.96-4.92-13.04-12.13-.09-7.16,4.68-12.35,12.09-12.43,7.01-.08,11.07,4.64,11.15,11.19.02,1.52-.17,2.54-.17,2.54l-16.14.19c.65,3.19,2.91,5.4,6.87,5.35,3.4-.04,5.16-1.69,6.16-2.82ZM43.22,21.35l10-.12c-.08-2.84-1.84-4.95-4.73-4.92-2.74.03-4.8,1.83-5.27,5.04Z" style="fill:#1c2026; stroke-width:0px;"/><path d="M86.14,34.85l-7.51.09-4.08-5.64c-.62-.81-1.04-1.66-1.14-2.02h-.15c-.1.36-.54,1.23-1.09,2.05l-3.84,5.73-7.51.09,8.64-12.29-8.82-11.68,7.61-.09,3.62,5.19c.41.66,1.3,2.12,1.4,2.62h.15c.09-.51.84-1.99,1.24-2.66l3.39-5.27,7.67-.09-8.54,12.24,8.98,11.72Z" style="fill:#1c2026; stroke-width:0px;"/><path d="M109.11,11.27l.28,23.62-5.46.02c-.41-1.52-.78-4.03-.79-4.77h-.1c-1.1,2.72-3.24,4.77-7.13,4.81-5.76.07-8.76-3.88-8.82-9.15l-.17-14.27,6.79-.08.16,13.09c.03,2.76,1.43,4.61,4.14,4.58,3.05-.04,4.54-3.06,4.51-5.76l-.14-12.01,6.74-.08Z" style="fill:#bdccd4; stroke-width:0px;"/><path d="M112.65,10.35l6.73-.19.3,24.67-6.74.08-.29-24.56Z" style="fill:#bdccd4; stroke-width:0px;"/><path d="M112.58,4.23l6.74-.05.05,1.19c.02,1.86-1.47,3.39-3.33,3.42h0c-1.86.02-3.39-1.47-3.42-3.33l-.03-1.22Z" style="fill:#bdccd4; stroke-width:0px;"/></g></svg>