<?xml version="1.0" encoding="UTF-8"?><svg id="Layer_2" xmlns="http://www.w3.org/2000/svg" viewBox="0 0 60.03 61.3"><g id="content"><path d="M34.03,1.9h0c1.17,1.43,3.17,1.89,4.85,1.11h0c2.97-1.39,6.46.3,7.23,3.48h0c.43,1.8,2.04,3.08,3.89,3.1h0c3.28.04,5.69,3.07,5,6.27h0c-.39,1.81.5,3.66,2.16,4.48h0c2.93,1.46,3.8,5.24,1.79,7.82h0c-1.14,1.46-1.14,3.51,0,4.97h0c2.01,2.59,1.15,6.37-1.79,7.82h0c-1.66.82-2.55,2.67-2.16,4.48h0c.69,3.2-1.73,6.23-5,6.27h0c-1.85.02-3.45,1.3-3.89,3.1h0c-.77,3.18-4.26,4.87-7.23,3.48h0c-1.68-.78-3.68-.33-4.85,1.11h0c-2.07,2.54-5.95,2.54-8.02,0h0c-1.17-1.43-3.17-1.89-4.85-1.11h0c-2.97,1.39-6.46-.3-7.23-3.48h0c-.43-1.8-2.04-3.08-3.89-3.1h0c-3.28-.04-5.69-3.07-5-6.27h0c.39-1.81-.5-3.66-2.16-4.48h0c-2.93-1.46-3.8-5.24-1.79-7.82h0c1.14-1.46,1.14-3.51,0-4.97h0c-2.01-2.59-1.15-6.37,1.79-7.82h0c1.66-.82,2.55-2.67,2.16-4.48h0c-.69-3.2,1.73-6.23,5-6.27h0c1.85-.02,3.45-1.3,3.89-3.1h0c.77-3.18,4.26-4.87,7.23-3.48h0c1.68.78,3.68.33,4.85-1.11h0c2.07-2.54,5.95-2.54,8.02,0Z" style="fill:#e3f9fc; stroke-width:0px;"/></g></svg>