<svg width="69" height="44" viewBox="0 0 69 44" fill="none" xmlns="http://www.w3.org/2000/svg">
<path d="M11.1408 13.6004L10.1365 10.8123H4.50771L3.48004 13.6004H0L5.41859 0H9.3424L14.761 13.6004H11.1408ZM6.09592 6.52817L5.48866 8.18288H9.17891L8.57165 6.52817C8.1746 5.44014 7.77755 4.30678 7.42721 3.21875H7.26372C6.91338 4.30678 6.49297 5.44014 6.09592 6.52817Z" fill="black"/>
<path d="M34.9136 0V10.5176H40.9394V13.6004H31.5503V0H34.9136Z" fill="black"/>
<path d="M58.4197 13.6004V0H69V3.08275H61.783V5.37214H68.4161V8.09221H61.783V10.5176H69V13.6004H58.4197Z" fill="black"/>
<path d="M9.64603 43.7053L6.7966 38.6732H6.58639L3.83038 43.7053H0.280272V43.66L4.53106 36.7011L0.326984 30.1503V30.105H4.0873L6.93673 35.0011H7.17029L9.76281 30.105H13.3363V30.1503L9.15555 37.0865L13.4063 43.66V43.7053H9.64603Z" fill="black"/>
<path d="M36.7144 40.9173C38.8865 40.9173 39.4937 39.5572 39.4937 37.8572V30.105H42.857V38.3105C42.857 41.8693 40.7082 44 36.7144 44C32.6971 44 30.4783 41.8693 30.4783 38.3105V30.105H33.8416V37.8345C33.8416 39.5572 34.5422 40.9173 36.7144 40.9173Z" fill="black"/>
<path d="M64.2235 43.7053H60.8603V30.105H64.2235V43.7053Z" fill="black"/>
</svg>
