<svg width="99" height="99" viewBox="0 0 99 99" fill="none" xmlns="http://www.w3.org/2000/svg">
<path d="M90.0446 0H8.95535C4.0095 0 0 4.0095 0 8.95535V90.0444C0 94.9905 4.0095 99 8.95535 99H90.0444C94.9905 99 99 94.9905 99 90.0444V8.95535C99 4.0095 94.9905 0 90.0446 0ZM30.6348 85.4831C30.6348 86.9225 29.4681 88.0893 28.0287 88.0893H16.935C15.4956 88.0893 14.3288 86.9225 14.3288 85.4831V38.9788C14.3288 37.5394 15.4956 36.3727 16.935 36.3727H28.0287C29.4681 36.3727 30.6348 37.5394 30.6348 38.9788V85.4831ZM22.4818 31.9889C16.6613 31.9889 11.9427 27.2704 11.9427 21.4498C11.9427 15.6293 16.6613 10.9107 22.4818 10.9107C28.3023 10.9107 33.0209 15.6293 33.0209 21.4498C33.0209 27.2704 28.3026 31.9889 22.4818 31.9889ZM88.6102 85.6931C88.6102 87.0163 87.5372 88.0893 86.214 88.0893H74.3096C72.9863 88.0893 71.9134 87.0163 71.9134 85.6931V63.8799C71.9134 60.6258 72.8679 49.6205 63.4095 49.6205C56.0729 49.6205 54.5848 57.1533 54.2859 60.5338V85.6931C54.2859 87.0163 53.2133 88.0893 51.8897 88.0893H40.3762C39.0529 88.0893 37.98 87.0163 37.98 85.6931V38.7689C37.98 37.4456 39.0529 36.3727 40.3762 36.3727H51.8897C53.213 36.3727 54.2859 37.4456 54.2859 38.7689V42.8261C57.0064 38.7435 61.0493 35.5923 69.6574 35.5923C88.7193 35.5923 88.6102 53.4009 88.6102 63.1858V85.6931Z" fill="white"/>
</svg>
