<svg width="320" height="320" viewBox="0 0 320 320" fill="none" xmlns="http://www.w3.org/2000/svg">
<path fill-rule="evenodd" clip-rule="evenodd" d="M137.66 0.974791C122.779 2.88679 105.889 8.07679 89.883 15.6558C59.628 29.9828 30.14 59.4708 15.813 89.7258C4.576 113.458 0 133.747 0 159.843C0 204.03 15.577 241.561 46.93 272.913C78.282 304.266 115.813 319.843 160 319.843C204.187 319.843 241.718 304.266 273.07 272.913C304.423 241.561 320 204.03 320 159.843C320 115.656 304.423 78.1248 273.07 46.7728C247.194 20.8958 215.734 5.21579 181.026 0.896791C171.142 -0.332209 147.506 -0.290209 137.66 0.974791ZM227.5 41.2688C236.261 43.6108 247.126 49.2288 251.952 53.9118C268.068 69.5518 263.879 98.2068 242.137 121.054C229.451 134.384 218.061 140.865 197.366 146.528C188.692 148.902 185.627 149.235 172 149.286C157.896 149.338 155.915 149.122 150 146.889C141.642 143.733 133 135.609 133 130.908C133 127.094 134.82 126.94 138.076 130.478C144.841 137.832 161.55 140.707 178 137.348C207.217 131.382 231.098 114.848 240.836 93.8428C242.832 89.5358 243.398 86.6998 243.443 80.7688C243.494 73.9628 243.215 72.8198 240.692 69.5088C235.123 62.2008 224.866 58.8718 207.86 58.8548C184.084 58.8308 160.849 66.1218 132 82.6608C98.853 101.663 82.144 121.746 83.175 141.343C83.879 154.732 89.031 161.424 114 181.389C123.075 188.646 131.301 195.479 132.28 196.575C133.958 198.452 134.388 198.488 139.78 197.189C142.926 196.431 150.9 195.772 157.5 195.724C175.154 195.595 185.794 199.471 194.897 209.347C204.616 219.891 206.564 233.444 199.754 243.148C196.052 248.423 185.977 253.148 186.012 249.593C186.019 248.906 187.584 247.333 189.489 246.099C194.284 242.993 197.356 236.692 196.74 231.226C196.1 225.547 191.798 218.434 186.828 214.833C178.323 208.672 163.205 205.12 150.539 206.307C140.904 207.21 140.664 207.411 142.047 213.428C142.668 216.131 143.167 222.395 143.155 227.347C143.102 248.6 132.338 266.048 113.498 275.419C99.641 282.312 82.321 282.454 75.387 275.734C70.497 270.993 68.694 265.463 69.17 256.654C70.083 239.719 81.547 226.907 111.028 209.875L121.061 204.078L114.281 199.111C110.551 196.379 104.65 192.234 101.167 189.9C89.964 182.392 75.48 170.146 70.127 163.657C63.628 155.779 59 146.313 58.332 139.536C56.781 123.78 72.409 99.3128 95.5 81.3468C120.634 61.7908 159.354 44.2048 186.863 39.8508C195.353 38.5068 220.442 39.3818 227.5 41.2688ZM119.011 218.403C103.301 228.089 93.74 237.757 89.915 247.824C85.948 258.264 88.374 264.473 96.304 264.174C110.638 263.631 125.95 247.986 129.048 230.715C130.247 224.035 129.36 214.796 127.46 214.163C126.899 213.976 123.097 215.884 119.011 218.403Z" fill="#CD669A"/>
</svg>
